<svg id="svg" xmlns="http://www.w3.org/2000/svg" xmlns:xlink="http://www.w3.org/1999/xlink" width="400" height="400" viewBox="0, 0, 400,400"><g id="svgg"><path id="path0" d="M175.000 9.375 C 175.000 15.923,168.403 18.750,153.125 18.750 L 131.250 18.750 131.250 77.077 L 131.250 135.403 98.438 132.942 C -11.417 124.702,-29.001 213.133,54.966 351.563 C 89.042 407.741,91.676 408.740,112.476 373.389 C 127.828 347.299,128.109 347.150,130.079 364.063 L 132.080 381.250 266.040 381.250 L 400.000 381.250 400.000 200.000 L 400.000 18.750 378.125 18.750 C 362.847 18.750,356.250 15.923,356.250 9.375 C 356.250 1.473,342.014 0.000,265.625 0.000 C 189.236 0.000,175.000 1.473,175.000 9.375 M326.811 37.500 C 329.315 47.075,335.336 50.000,352.540 50.000 L 375.000 50.000 375.000 200.000 L 375.000 350.000 328.125 350.000 L 281.250 350.000 281.250 325.000 C 281.250 302.500,279.688 300.000,265.625 300.000 C 251.563 300.000,250.000 302.500,250.000 325.000 L 250.000 350.000 203.125 350.000 L 156.250 350.000 156.250 325.518 C 156.250 312.053,161.875 287.914,168.750 271.875 C 184.616 234.861,184.608 202.460,168.727 176.411 C 158.849 160.210,156.250 144.914,156.250 102.974 L 156.250 50.000 181.250 50.000 C 202.083 50.000,206.250 47.917,206.250 37.500 C 206.250 25.888,210.417 25.000,264.896 25.000 C 318.286 25.000,323.835 26.120,326.811 37.500 M225.000 93.750 L 225.000 150.000 258.406 150.000 C 295.817 150.000,312.500 138.186,312.500 111.695 C 312.500 90.033,301.322 81.250,273.750 81.250 C 254.167 81.250,250.000 79.057,250.000 68.750 C 250.000 58.333,254.167 56.250,275.000 56.250 C 293.056 56.250,300.000 53.646,300.000 46.875 C 300.000 39.583,291.667 37.500,262.500 37.500 L 225.000 37.500 225.000 93.750 M279.851 107.351 C 289.309 116.809,278.361 131.250,261.735 131.250 C 253.384 131.250,250.000 126.744,250.000 115.625 C 250.000 98.602,266.522 94.022,279.851 107.351 M131.731 180.769 C 157.500 206.539,155.482 228.025,121.025 294.740 L 92.051 350.840 80.075 333.232 C 61.052 305.265,32.650 247.784,31.167 234.252 C 24.223 170.889,87.956 136.994,131.731 180.769 M206.250 175.000 C 206.250 184.167,210.417 187.500,221.875 187.500 C 233.333 187.500,237.500 184.167,237.500 175.000 C 237.500 165.833,233.333 162.500,221.875 162.500 C 210.417 162.500,206.250 165.833,206.250 175.000 M250.000 175.000 C 250.000 184.167,254.167 187.500,265.625 187.500 C 277.083 187.500,281.250 184.167,281.250 175.000 C 281.250 165.833,277.083 162.500,265.625 162.500 C 254.167 162.500,250.000 165.833,250.000 175.000 M300.000 175.000 C 300.000 184.167,304.167 187.500,315.625 187.500 C 327.083 187.500,331.250 184.167,331.250 175.000 C 331.250 165.833,327.083 162.500,315.625 162.500 C 304.167 162.500,300.000 165.833,300.000 175.000 M59.091 190.341 C 30.941 218.491,51.154 268.750,90.625 268.750 C 130.096 268.750,150.309 218.491,122.159 190.341 C 102.607 170.789,78.643 170.789,59.091 190.341 M105.078 220.403 C 107.565 233.319,89.523 242.023,80.000 232.500 C 70.477 222.977,79.181 204.935,92.097 207.422 C 98.083 208.575,103.925 214.417,105.078 220.403 M206.250 221.875 C 206.250 234.375,209.375 237.500,221.875 237.500 C 234.375 237.500,237.500 234.375,237.500 221.875 C 237.500 209.375,234.375 206.250,221.875 206.250 C 209.375 206.250,206.250 209.375,206.250 221.875 M250.000 221.875 C 250.000 234.375,253.125 237.500,265.625 237.500 C 278.125 237.500,281.250 234.375,281.250 221.875 C 281.250 209.375,278.125 206.250,265.625 206.250 C 253.125 206.250,250.000 209.375,250.000 221.875 M300.000 221.875 C 300.000 234.375,303.125 237.500,315.625 237.500 C 328.125 237.500,331.250 234.375,331.250 221.875 C 331.250 209.375,328.125 206.250,315.625 206.250 C 303.125 206.250,300.000 209.375,300.000 221.875 M206.250 268.750 C 206.250 277.917,210.417 281.250,221.875 281.250 C 233.333 281.250,237.500 277.917,237.500 268.750 C 237.500 259.583,233.333 256.250,221.875 256.250 C 210.417 256.250,206.250 259.583,206.250 268.750 M250.000 268.750 C 250.000 277.917,254.167 281.250,265.625 281.250 C 277.083 281.250,281.250 277.917,281.250 268.750 C 281.250 259.583,277.083 256.250,265.625 256.250 C 254.167 256.250,250.000 259.583,250.000 268.750 M300.000 268.750 C 300.000 277.917,304.167 281.250,315.625 281.250 C 327.083 281.250,331.250 277.917,331.250 268.750 C 331.250 259.583,327.083 256.250,315.625 256.250 C 304.167 256.250,300.000 259.583,300.000 268.750 " stroke="none" fill="#000000" fill-rule="evenodd"></path></g></svg>